# xmcd CD database file
#
# Track frame offsets:
#	150
#	19970
#	43420
#	65440
#	90548
#	114308
#	129839
#	149525
#	168391
#	180731
#	199600
#	220775
#	245297
#	266721
#	293868
#	312036
#
# Disc length: 4420 seconds
#
# Revision: 0
# Processed by: cddbd v1.5.1PL2 Copyright (c) Steve Scherf et al.
# Submitted via: NeoAudio 9.9.9
#
DISCID=e9114210
DTITLE=Varios - Feria de Cali 2002
DYEAR=2002
DGENRE=Salsa
TTITLE0=Caraluna
TTITLE1=Tabaco y Chanel
TTITLE2=Que Alguien Me Ayude
TTITLE3=La Conciencia
TTITLE4=Vivir Sin Ella
TTITLE5=Brujeria
TTITLE6=Ojos Chinos
TTITLE7=Lluvia
TTITLE8=La Sirena
TTITLE9=Señora Ley
TTITLE10=Y Entonces
TTITLE11=Todo Es Mentira
TTITLE12=Amada Mia
TTITLE13=Por Mujeres Como TU
TTITLE14=Señora
TTITLE15=Dime Como Te LLego
EXTD=YEAR: 2002
EXTT0=
EXTT1=
EXTT2=
EXTT3=
EXTT4=
EXTT5=
EXTT6=
EXTT7=
EXTT8=
EXTT9=
EXTT10=
EXTT11=
EXTT12=
EXTT13=
EXTT14=
EXTT15=
PLAYORDER=
